<svg width="874" height="896" viewBox="0 0 874 896" fill="none" xmlns="http://www.w3.org/2000/svg">
<path d="M525.704 0C532.479 0.000213492 539.079 2.15065 544.554 6.1416C550.028 10.1326 554.095 15.7581 556.168 22.208L591.368 131.584C606.152 138.816 620.296 146.944 633.8 156.096L746.184 131.904C752.81 130.489 759.715 131.214 765.902 133.975C772.09 136.735 777.242 141.388 780.616 147.264L869.32 300.8C872.707 306.672 874.142 313.469 873.417 320.209C872.693 326.95 869.846 333.286 865.288 338.304L788.168 423.424C789.291 439.746 789.291 456.126 788.168 472.448L865.288 557.696C869.846 562.714 872.693 569.05 873.417 575.791C874.142 582.531 872.707 589.328 869.32 595.2L780.616 748.8C777.233 754.664 772.077 759.304 765.89 762.053C759.703 764.801 752.803 765.517 746.184 764.096L633.8 739.904C620.36 748.992 606.152 757.184 591.432 764.416L556.168 873.792C554.095 880.242 550.028 885.867 544.554 889.858C539.079 893.849 532.479 896 525.704 896H348.296C341.521 896 334.921 893.849 329.446 889.858C323.972 885.867 319.905 880.242 317.832 873.792L282.696 764.48C267.952 757.27 253.73 749.037 240.136 739.84L127.816 764.096C121.19 765.511 114.285 764.786 108.098 762.025C101.91 759.265 96.758 754.612 93.384 748.736L4.68 595.2C1.29277 589.328 -0.141955 582.531 0.582698 575.791C1.30735 569.05 4.15394 562.714 8.712 557.696L85.832 472.448C84.7149 456.168 84.7149 439.832 85.832 423.552L8.712 338.304C4.15394 333.286 1.30735 326.95 0.582698 320.209C-0.141955 313.469 1.29277 306.672 4.68 300.8L93.384 147.2C96.7673 141.336 101.923 136.696 108.11 133.947C114.297 131.199 121.197 130.483 127.816 131.904L240.136 156.16C253.704 147.008 267.912 138.752 282.696 131.52L317.896 22.208C319.962 15.7789 324.01 10.1682 329.459 6.1792C334.908 2.19017 341.479 0.0272427 348.232 0H525.64H525.704ZM502.28 64H371.72L335.368 177.088L310.856 189.056C298.806 194.953 287.173 201.667 276.04 209.152L253.384 224.512L137.16 199.424L71.88 312.576L151.56 400.768L149.64 427.904C148.72 441.286 148.72 454.714 149.64 468.096L151.56 495.232L71.752 583.424L137.096 696.576L253.32 671.552L275.976 686.848C287.109 694.333 298.742 701.047 310.792 706.944L335.304 718.912L371.72 832H502.408L538.888 718.848L563.336 706.944C575.373 701.061 586.985 694.346 598.088 686.848L620.68 671.552L736.968 696.576L802.248 583.424L722.504 495.232L724.424 468.096C725.347 454.693 725.347 441.243 724.424 427.84L722.504 400.704L802.312 312.576L736.968 199.424L620.68 224.384L598.088 209.152C586.986 201.652 575.374 194.937 563.336 189.056L538.888 177.152L502.344 64H502.28ZM437 256C487.922 256 536.758 276.229 572.765 312.236C608.772 348.242 629 397.078 629 448C629 498.922 608.772 547.758 572.765 583.765C536.758 619.772 487.922 640 437 640C386.078 640 337.242 619.772 301.236 583.765C265.229 547.758 245 498.922 245 448C245 397.078 265.229 348.242 301.236 312.236C337.242 276.229 386.078 256 437 256V256ZM437 320C403.052 320 370.495 333.486 346.49 357.49C322.486 381.495 309 414.052 309 448C309 481.948 322.486 514.505 346.49 538.51C370.495 562.514 403.052 576 437 576C470.948 576 503.505 562.514 527.51 538.51C551.514 514.505 565 481.948 565 448C565 414.052 551.514 381.495 527.51 357.49C503.505 333.486 470.948 320 437 320V320Z" fill="#6D6D6D"/>
</svg>
